 <svg
          class="fill-current"
          xmlns="http://www.w3.org/2000/svg"
          width="22"
          height="22"
          viewBox="0 0 22 22"
        >
          <path
            d="M19.555556,0 L2.444444,0 C1.1,0 0,1.1 0,2.44444 L0,11 C0,12.34444 1.1,13.44444 2.444444,13.44444 L19.555556,13.44444 C20.9,13.44444 22,12.34444 22,11 L22,2.44444 C22,1.1 20.9,0 19.555556,0 Z M19.555556,7.33333 L14.666667,7.33333 C14.666667,9.31333 12.98,11 11,11 C9.02,11 7.333333,9.31333 7.333333,7.33333 L2.444444,7.33333 L2.444444,2.44444 L19.555556,2.44444 L19.555556,7.33333 Z M14.666667,15.88889 L22,15.88889 L22,19.55556 C22,20.9 20.9,22 19.555556,22 L2.444444,22 C1.1,22 0,20.9 0,19.55556 L0,15.88889 L7.333333,15.88889 C7.333333,17.91778 8.971111,19.55556 11,19.55556 C13.028889,19.55556 14.666667,17.91778 14.666667,15.88889 Z"
          />
        </svg>